<?xml version="1.0" encoding="UTF-8"?>
<!DOCTYPE svg PUBLIC "-//W3C//DTD SVG 1.1//EN" "http://www.w3.org/Graphics/SVG/1.1/DTD/svg11.dtd">
<svg xmlns="http://www.w3.org/2000/svg" version="1.1" width="384px" height="352px" style="shape-rendering:geometricPrecision; text-rendering:geometricPrecision; image-rendering:optimizeQuality; fill-rule:evenodd; clip-rule:evenodd" xmlns:xlink="http://www.w3.org/1999/xlink">
<g><path style="opacity:1" fill="#fefefe" d="M -0.5,-0.5 C 127.5,-0.5 255.5,-0.5 383.5,-0.5C 383.5,116.833 383.5,234.167 383.5,351.5C 365.833,351.5 348.167,351.5 330.5,351.5C 330.168,342.475 330.502,333.475 331.5,324.5C 333.167,323.833 334.833,323.167 336.5,322.5C 337.901,311.051 337.234,299.718 334.5,288.5C 336.371,288.141 337.871,287.141 339,285.5C 340.167,283.167 341.333,280.833 342.5,278.5C 341.167,277.167 339.833,275.833 338.5,274.5C 345.465,265.693 350.965,256.026 355,245.5C 355.667,241.167 355.667,236.833 355,232.5C 352.235,226.625 348.735,221.291 344.5,216.5C 357.256,170.27 361.423,123.27 357,75.5C 354.446,60.4937 348.779,46.827 340,34.5C 332.255,25.2086 322.422,19.3753 310.5,17C 300.448,16.1355 290.448,16.4688 280.5,18C 267.01,21.7392 253.677,26.0725 240.5,31C 213.662,37.3237 186.662,37.9903 159.5,33C 140.432,28.2046 121.099,25.0379 101.5,23.5C 79.1267,23.1029 61.6267,32.1029 49,50.5C 32.9277,76.1813 26.261,104.181 29,134.5C 30.5177,156.568 38.0177,176.234 51.5,193.5C 49.5707,195.148 47.5707,196.815 45.5,198.5C 44.4249,200.811 44.4249,203.144 45.5,205.5C 35.9817,215.557 31.815,227.557 33,241.5C 35.9274,248.218 41.0941,251.218 48.5,250.5C 46.5154,260.408 45.1821,270.408 44.5,280.5C 44.5,283.5 44.5,286.5 44.5,289.5C 43.1667,295.5 43.1667,301.5 44.5,307.5C 44.2155,309.415 44.5489,311.081 45.5,312.5C 47.2504,313.87 49.2504,314.87 51.5,315.5C 51.5,327.5 51.5,339.5 51.5,351.5C 34.1667,351.5 16.8333,351.5 -0.5,351.5C -0.5,234.167 -0.5,116.833 -0.5,-0.5 Z"/></g>
<g><path style="opacity:1" fill="#a2e3d4" d="M 153.5,14.5 C 162.991,13.9562 171.991,15.7896 180.5,20C 169.499,18.4392 158.833,19.7725 148.5,24C 143.344,25.5124 141.677,23.8458 143.5,19C 146.815,17.1702 150.149,15.6702 153.5,14.5 Z"/></g>
<g><path style="opacity:1" fill="#9fe1d2" d="M 344.5,216.5 C 343.167,215.833 342.167,214.833 341.5,213.5C 341.256,210.737 339.923,208.571 337.5,207C 328.917,200.042 319.25,195.208 308.5,192.5C 306.498,190.474 306.164,188.141 307.5,185.5C 322.819,181.357 331.486,171.524 333.5,156C 332.874,150.957 331.54,146.123 329.5,141.5C 329.554,130.136 326.387,119.469 320,109.5C 310.044,97.2942 297.378,92.6276 282,95.5C 281.123,90.1147 279.456,85.1147 277,80.5C 266.953,70.8606 257.453,71.3606 248.5,82C 235.524,81.653 225.524,86.8197 218.5,97.5C 216.801,97.6602 215.134,97.4935 213.5,97C 211.205,92.8659 207.871,90.0326 203.5,88.5C 185.211,83.8265 168.211,86.8265 152.5,97.5C 148.864,92.5016 144.197,88.6682 138.5,86C 128.993,82.8006 119.327,80.634 109.5,79.5C 105.394,75.2197 101.394,70.7197 97.5,66C 94.3307,65.0218 91.4973,65.5218 89,67.5C 88.5182,70.9066 88.5182,74.24 89,77.5C 85.7025,72.1985 81.2025,68.3652 75.5,66C 68.7155,64.5588 64.0488,67.0588 61.5,73.5C 59.3225,83.3035 61.9891,91.6368 69.5,98.5C 67.5936,101.64 66.2603,104.973 65.5,108.5C 60.0946,106.957 56.5946,108.957 55,114.5C 53.9111,119.561 54.7444,124.228 57.5,128.5C 50.3104,143.41 52.6438,156.577 64.5,168C 70.1814,172.091 76.3481,175.257 83,177.5C 83.0969,180.716 82.2636,183.716 80.5,186.5C 78.059,185.244 75.7257,185.244 73.5,186.5C 65.9059,188.031 58.5725,190.365 51.5,193.5C 38.0177,176.234 30.5177,156.568 29,134.5C 26.261,104.181 32.9277,76.1813 49,50.5C 61.6267,32.1029 79.1267,23.1029 101.5,23.5C 121.099,25.0379 140.432,28.2046 159.5,33C 186.662,37.9903 213.662,37.3237 240.5,31C 253.677,26.0725 267.01,21.7392 280.5,18C 290.448,16.4688 300.448,16.1355 310.5,17C 322.422,19.3753 332.255,25.2086 340,34.5C 348.779,46.827 354.446,60.4937 357,75.5C 361.423,123.27 357.256,170.27 344.5,216.5 Z"/></g>
<g><path style="opacity:1" fill="#a6e4d6" d="M 335.5,18.5 C 338.47,18.7458 339.803,20.4124 339.5,23.5C 336.09,23.6162 334.756,21.9496 335.5,18.5 Z"/></g>
<g><path style="opacity:1" fill="#a4e3d5" d="M 166.5,21.5 C 169.518,21.3354 172.518,21.502 175.5,22C 185.686,25.2851 196.019,27.9518 206.5,30C 191.542,29.2015 176.542,28.5348 161.5,28C 159.595,27.1739 159.261,26.0072 160.5,24.5C 162.444,23.1993 164.444,22.1993 166.5,21.5 Z"/></g>
<g><path style="opacity:1" fill="#a7e4d6" d="M 340.5,24.5 C 348.948,27.4625 354.115,33.4625 356,42.5C 356.667,45.5 356.667,48.5 356,51.5C 355.703,48.086 355.036,44.7527 354,41.5C 349.667,37.5 345.333,33.5 341,29.5C 339.481,27.8608 339.314,26.1942 340.5,24.5 Z"/></g>
<g><path style="opacity:1" fill="#aae5d7" d="M 54.5,30.5 C 55.2389,30.369 55.9056,30.5357 56.5,31C 48.2292,34.3322 43.3958,40.4989 42,49.5C 37.3968,56.5311 35.3968,55.8644 36,47.5C 39.8329,39.1621 45.9996,33.4954 54.5,30.5 Z"/></g>
<g><path style="opacity:1" fill="#a6e4d6" d="M 32.5,55.5 C 33.5,55.5 34.5,55.5 35.5,55.5C 35.7725,57.9582 34.7725,59.6249 32.5,60.5C 31.3336,58.8327 31.3336,57.166 32.5,55.5 Z"/></g>
<g><path style="opacity:1" fill="#302e2f" d="M 109.5,79.5 C 108.624,79.3691 107.957,79.7025 107.5,80.5C 108.982,82.4829 110.649,84.3163 112.5,86C 121.125,90.3199 130.125,93.6532 139.5,96C 141.792,97.2899 143.792,98.9565 145.5,101C 144.05,101.117 142.55,100.95 141,100.5C 136.918,101.159 135.584,103.492 137,107.5C 138.18,109.86 139.347,112.193 140.5,114.5C 139.793,120.8 139.293,127.133 139,133.5C 137.173,139.145 134.007,143.812 129.5,147.5C 128.32,144.83 128.487,142.164 130,139.5C 131.715,136.565 133.548,133.732 135.5,131C 132.88,127.555 132.88,124.055 135.5,120.5C 135.333,120.167 135.167,119.833 135,119.5C 124.211,124.347 116.711,121.347 112.5,110.5C 113.738,110.19 113.738,109.69 112.5,109C 109.086,108.703 105.753,108.036 102.5,107C 95.9818,102.74 88.9818,99.5738 81.5,97.5C 81.719,98.675 81.3857,99.675 80.5,100.5C 70.5147,93.8827 64.1814,84.8827 61.5,73.5C 64.0488,67.0588 68.7155,64.5588 75.5,66C 81.2025,68.3652 85.7025,72.1985 89,77.5C 88.5182,74.24 88.5182,70.9066 89,67.5C 91.4973,65.5218 94.3307,65.0218 97.5,66C 101.394,70.7197 105.394,75.2197 109.5,79.5 Z"/></g>
<g><path style="opacity:1" fill="#272425" d="M 61.5,73.5 C 64.1814,84.8827 70.5147,93.8827 80.5,100.5C 81.3857,99.675 81.719,98.675 81.5,97.5C 88.9818,99.5738 95.9818,102.74 102.5,107C 105.753,108.036 109.086,108.703 112.5,109C 113.738,109.69 113.738,110.19 112.5,110.5C 98.149,113.329 85.149,110.329 73.5,101.5C 71.5,104.833 69.5,108.167 67.5,111.5C 66.5748,110.643 65.9081,109.643 65.5,108.5C 66.2603,104.973 67.5936,101.64 69.5,98.5C 61.9891,91.6368 59.3225,83.3035 61.5,73.5 Z"/></g>
<g><path style="opacity:1" fill="#252122" d="M 109.5,79.5 C 119.327,80.634 128.993,82.8006 138.5,86C 144.197,88.6682 148.864,92.5016 152.5,97.5C 147.66,102.657 143.66,108.323 140.5,114.5C 139.347,112.193 138.18,109.86 137,107.5C 135.584,103.492 136.918,101.159 141,100.5C 142.55,100.95 144.05,101.117 145.5,101C 143.792,98.9565 141.792,97.2899 139.5,96C 130.125,93.6532 121.125,90.3199 112.5,86C 110.649,84.3163 108.982,82.4829 107.5,80.5C 107.957,79.7025 108.624,79.3691 109.5,79.5 Z"/></g>
<g><path style="opacity:1" fill="#d23340" d="M 203.5,88.5 C 207.871,90.0326 211.205,92.8659 213.5,97C 215.134,97.4935 216.801,97.6602 218.5,97.5C 228.748,100.58 235.581,107.247 239,117.5C 239.349,124.276 240.349,130.943 242,137.5C 246.822,142.469 250.989,147.802 254.5,153.5C 254.706,157.898 254.373,162.232 253.5,166.5C 252.248,168.001 251.248,169.668 250.5,171.5C 245.658,177.288 245.158,183.622 249,190.5C 250.266,196.595 249.266,202.262 246,207.5C 243.872,209.808 241.372,211.474 238.5,212.5C 235.573,211.243 233.239,209.243 231.5,206.5C 230.524,201.775 232.024,198.108 236,195.5C 236.667,193.167 236.667,190.833 236,188.5C 230.016,183.858 228.016,177.858 230,170.5C 230.154,174.098 231.154,177.431 233,180.5C 233.654,181.696 234.154,181.696 234.5,180.5C 233.116,177.666 232.449,174.666 232.5,171.5C 233.167,166.5 233.833,161.5 234.5,156.5C 234.428,154.44 234.095,152.44 233.5,150.5C 234.441,150.511 235.108,150.011 235.5,149C 234.722,146.61 233.555,144.443 232,142.5C 225.667,137.167 219.333,131.833 213,126.5C 209.703,121.615 207.369,116.282 206,110.5C 201.329,115.502 195.829,119.335 189.5,122C 180.664,123.709 171.997,126.042 163.5,129C 160.241,130.211 157.408,132.044 155,134.5C 154.544,135.744 155.044,136.577 156.5,137C 152.48,140.011 149.647,143.844 148,148.5C 147.88,155.173 147.88,161.839 148,168.5C 145.971,171.552 144.804,174.886 144.5,178.5C 145.945,182.386 146.445,186.386 146,190.5C 141.692,192.141 138.692,195.141 137,199.5C 136.825,194.981 136.325,190.647 135.5,186.5C 132.862,181.901 130.196,177.234 127.5,172.5C 126.89,171.609 126.557,170.609 126.5,169.5C 126.198,162.57 128.031,156.237 132,150.5C 141.667,141.5 151.333,132.5 161,123.5C 164.03,119.613 165.03,115.28 164,110.5C 161.447,108.271 158.614,107.938 155.5,109.5C 155.167,109 154.833,108.5 154.5,108C 157.34,101.566 162.007,96.8995 168.5,94C 179.478,87.8423 191.144,86.0089 203.5,88.5 Z"/></g>
<g><path style="opacity:1" fill="#c2394a" d="M 203.5,88.5 C 191.144,86.0089 179.478,87.8423 168.5,94C 162.007,96.8995 157.34,101.566 154.5,108C 154.833,108.5 155.167,109 155.5,109.5C 158.614,107.938 161.447,108.271 164,110.5C 165.03,115.28 164.03,119.613 161,123.5C 151.333,132.5 141.667,141.5 132,150.5C 128.031,156.237 126.198,162.57 126.5,169.5C 125.352,165.019 125.185,160.352 126,155.5C 127.454,152.929 128.62,150.262 129.5,147.5C 134.007,143.812 137.173,139.145 139,133.5C 139.293,127.133 139.793,120.8 140.5,114.5C 143.66,108.323 147.66,102.657 152.5,97.5C 168.211,86.8265 185.211,83.8265 203.5,88.5 Z"/></g>
<g><path style="opacity:1" fill="#fab364" d="M 329.5,141.5 C 325.817,136.653 322.484,131.487 319.5,126C 312.923,124.275 306.257,122.941 299.5,122C 294.822,120.324 290.989,117.491 288,113.5C 287.916,119.017 286.916,124.351 285,129.5C 281.24,134.683 277.24,139.683 273,144.5C 271.02,149.277 270.02,154.277 270,159.5C 269.333,160.167 268.667,160.833 268,161.5C 265.998,159.497 264.498,157.164 263.5,154.5C 260.663,152.37 257.663,152.037 254.5,153.5C 250.989,147.802 246.822,142.469 242,137.5C 240.349,130.943 239.349,124.276 239,117.5C 235.581,107.247 228.748,100.58 218.5,97.5C 225.524,86.8197 235.524,81.653 248.5,82C 257.453,71.3606 266.953,70.8606 277,80.5C 279.456,85.1147 281.123,90.1147 282,95.5C 297.378,92.6276 310.044,97.2942 320,109.5C 326.387,119.469 329.554,130.136 329.5,141.5 Z"/></g>
<g><path style="opacity:1" fill="#f9cbb6" d="M 112.5,110.5 C 116.711,121.347 124.211,124.347 135,119.5C 135.167,119.833 135.333,120.167 135.5,120.5C 132.88,124.055 132.88,127.555 135.5,131C 133.548,133.732 131.715,136.565 130,139.5C 128.487,142.164 128.32,144.83 129.5,147.5C 128.62,150.262 127.454,152.929 126,155.5C 125.185,160.352 125.352,165.019 126.5,169.5C 126.557,170.609 126.89,171.609 127.5,172.5C 122.168,175.395 116.501,177.729 110.5,179.5C 108.218,182.254 107.885,185.254 109.5,188.5C 101.528,193.489 93.528,198.489 85.5,203.5C 82.459,198.355 80.7923,192.688 80.5,186.5C 82.2636,183.716 83.0969,180.716 83,177.5C 76.3481,175.257 70.1814,172.091 64.5,168C 52.6438,156.577 50.3104,143.41 57.5,128.5C 54.7444,124.228 53.9111,119.561 55,114.5C 56.5946,108.957 60.0946,106.957 65.5,108.5C 65.9081,109.643 66.5748,110.643 67.5,111.5C 69.5,108.167 71.5,104.833 73.5,101.5C 85.149,110.329 98.149,113.329 112.5,110.5 Z"/></g>
<g><path style="opacity:1" fill="#3c3331" d="M 74.5,110.5 C 77.1873,110.336 79.854,110.503 82.5,111C 82.9574,111.414 83.2907,111.914 83.5,112.5C 78.4569,112.791 73.7902,114.124 69.5,116.5C 68.479,115.998 68.3123,115.332 69,114.5C 70.8121,113.023 72.6455,111.69 74.5,110.5 Z"/></g>
<g><path style="opacity:1" fill="#facab5" d="M 329.5,141.5 C 331.54,146.123 332.874,150.957 333.5,156C 331.486,171.524 322.819,181.357 307.5,185.5C 306.164,188.141 306.498,190.474 308.5,192.5C 307.45,199.701 305.616,206.701 303,213.5C 296.935,206.942 291.102,200.275 285.5,193.5C 286.793,191.636 286.793,189.636 285.5,187.5C 280.289,185.717 275.289,183.717 270.5,181.5C 270.938,181.565 271.272,181.399 271.5,181C 268.6,178.603 266.267,175.77 264.5,172.5C 260.079,171.791 256.412,169.791 253.5,166.5C 254.373,162.232 254.706,157.898 254.5,153.5C 257.663,152.037 260.663,152.37 263.5,154.5C 264.498,157.164 265.998,159.497 268,161.5C 268.667,160.833 269.333,160.167 270,159.5C 270.02,154.277 271.02,149.277 273,144.5C 277.24,139.683 281.24,134.683 285,129.5C 286.916,124.351 287.916,119.017 288,113.5C 290.989,117.491 294.822,120.324 299.5,122C 306.257,122.941 312.923,124.275 319.5,126C 322.484,131.487 325.817,136.653 329.5,141.5 Z"/></g>
<g><path style="opacity:1" fill="#342c2c" d="M 107.5,119.5 C 113.182,120.343 117.349,123.343 120,128.5C 120.749,129.635 120.583,130.635 119.5,131.5C 117.768,129.717 116.268,127.717 115,125.5C 113.065,123.898 110.899,122.731 108.5,122C 107.748,121.329 107.414,120.496 107.5,119.5 Z"/></g>
<g><path style="opacity:1" fill="#facab5" d="M 228.5,154.5 C 227.437,158.639 226.77,162.972 226.5,167.5C 225.694,171.946 223.694,175.779 220.5,179C 214.925,183.453 208.592,186.286 201.5,187.5C 201.5,188.5 201.5,189.5 201.5,190.5C 202.773,192.713 203.773,195.046 204.5,197.5C 199.774,204.602 195.274,211.936 191,219.5C 186.272,211.611 181.772,203.611 177.5,195.5C 178.931,194.22 179.598,192.553 179.5,190.5C 180.774,189.811 180.774,188.977 179.5,188C 168.496,186.59 160.329,181.09 155,171.5C 153.457,164.858 151.623,158.358 149.5,152C 150.949,146.558 153.949,142.224 158.5,139C 170.898,134.151 183.231,129.151 195.5,124C 199.333,121.5 202.5,118.333 205,114.5C 207.375,126.737 214.209,135.57 225.5,141C 228.002,143.673 230.002,146.673 231.5,150C 230.685,151.643 229.685,153.143 228.5,154.5 Z"/></g>
<g><path style="opacity:1" fill="#705d56" d="M 75.5,131.5 C 75.5,129.167 75.5,126.833 75.5,124.5C 74.1266,124.343 72.7932,124.51 71.5,125C 66.138,134.902 65.638,134.735 70,124.5C 73.6233,121.433 76.1233,122.1 77.5,126.5C 77.5643,128.557 76.8976,130.223 75.5,131.5 Z"/></g>
<g><path style="opacity:1" fill="#3b3331" d="M 103.5,132.5 C 104.097,131.861 104.93,131.528 106,131.5C 107.376,131.684 108.209,132.351 108.5,133.5C 106.958,132.699 105.292,132.366 103.5,132.5 Z"/></g>
<g><path style="opacity:1" fill="#60504b" d="M 75.5,131.5 C 75.6882,133.103 75.1882,134.437 74,135.5C 73.6522,133.86 74.1522,132.527 75.5,131.5 Z"/></g>
<g><path style="opacity:1" fill="#554743" d="M 103.5,132.5 C 102.833,133.833 101.833,134.833 100.5,135.5C 100.5,133.5 101.5,132.5 103.5,132.5 Z"/></g>
<g><path style="opacity:1" fill="#584a46" d="M 100.5,135.5 C 99.9553,137.593 99.122,139.593 98,141.5C 97.4585,138.918 98.2918,136.918 100.5,135.5 Z"/></g>
<g><path style="opacity:1" fill="#f9b173" d="M 283.5,135.5 C 284.239,135.369 284.906,135.536 285.5,136C 282,138.167 279.167,141 277,144.5C 277.732,140.582 279.899,137.582 283.5,135.5 Z"/></g>
<g><path style="opacity:1" fill="#6c5a53" d="M 108.5,133.5 C 109.409,137.543 108.742,141.543 106.5,145.5C 106.167,145.167 105.833,144.833 105.5,144.5C 107.117,140.986 108.117,137.319 108.5,133.5 Z"/></g>
<g><path style="opacity:1" fill="#574945" d="M 312.5,143.5 C 311.152,142.473 310.652,141.14 311,139.5C 312.188,140.563 312.688,141.897 312.5,143.5 Z"/></g>
<g><path style="opacity:1" fill="#6c5a53" d="M 312.5,143.5 C 313.837,144.315 314.837,145.482 315.5,147C 316.448,147.483 317.448,147.649 318.5,147.5C 318.538,144.193 317.872,141.026 316.5,138C 316.93,136.566 317.764,135.399 319,134.5C 318.471,138.907 318.804,143.24 320,147.5C 315.923,149.877 313.423,148.544 312.5,143.5 Z"/></g>
<g><path style="opacity:1" fill="#534642" d="M 285.5,156.5 C 283.827,155.657 282.66,154.324 282,152.5C 280.022,153.816 278.522,153.316 277.5,151C 279.101,150.727 280.601,150.227 282,149.5C 283.193,151.886 284.36,154.22 285.5,156.5 Z"/></g>
<g><path style="opacity:1" fill="#514440" d="M 285.5,156.5 C 287.086,157.413 288.586,157.413 290,156.5C 290.519,152.985 290.186,149.652 289,146.5C 291.374,149.801 292.04,153.467 291,157.5C 288.765,158.98 286.932,158.647 285.5,156.5 Z"/></g>
<g><path style="opacity:1" fill="#66554f" d="M 96.5,150.5 C 97.525,150.897 97.6917,151.563 97,152.5C 90.3176,159.596 83.1509,160.263 75.5,154.5C 75.6667,154.167 75.8333,153.833 76,153.5C 83.788,159.286 90.6213,158.286 96.5,150.5 Z"/></g>
<g><path style="opacity:1" fill="#c33b4c" d="M 231.5,206.5 C 226.885,203.36 221.885,201.026 216.5,199.5C 213.924,198.512 211.257,197.512 208.5,196.5C 206.761,193.757 204.427,191.757 201.5,190.5C 201.5,189.5 201.5,188.5 201.5,187.5C 208.592,186.286 214.925,183.453 220.5,179C 223.694,175.779 225.694,171.946 226.5,167.5C 228.177,163.455 228.844,159.122 228.5,154.5C 229.685,153.143 230.685,151.643 231.5,150C 230.002,146.673 228.002,143.673 225.5,141C 214.209,135.57 207.375,126.737 205,114.5C 202.5,118.333 199.333,121.5 195.5,124C 183.231,129.151 170.898,134.151 158.5,139C 153.949,142.224 150.949,146.558 149.5,152C 151.623,158.358 153.457,164.858 155,171.5C 160.329,181.09 168.496,186.59 179.5,188C 180.774,188.977 180.774,189.811 179.5,190.5C 175.249,192.425 171.583,195.092 168.5,198.5C 157.147,200.207 148.481,205.874 142.5,215.5C 140.83,215.249 139.33,214.582 138,213.5C 136.373,210.643 135.207,207.643 134.5,204.5C 135.074,198.516 135.407,192.516 135.5,186.5C 136.325,190.647 136.825,194.981 137,199.5C 138.692,195.141 141.692,192.141 146,190.5C 146.445,186.386 145.945,182.386 144.5,178.5C 144.804,174.886 145.971,171.552 148,168.5C 147.88,161.839 147.88,155.173 148,148.5C 149.647,143.844 152.48,140.011 156.5,137C 155.044,136.577 154.544,135.744 155,134.5C 157.408,132.044 160.241,130.211 163.5,129C 171.997,126.042 180.664,123.709 189.5,122C 195.829,119.335 201.329,115.502 206,110.5C 207.369,116.282 209.703,121.615 213,126.5C 219.333,131.833 225.667,137.167 232,142.5C 233.555,144.443 234.722,146.61 235.5,149C 235.108,150.011 234.441,150.511 233.5,150.5C 234.095,152.44 234.428,154.44 234.5,156.5C 233.833,161.5 233.167,166.5 232.5,171.5C 232.449,174.666 233.116,177.666 234.5,180.5C 234.154,181.696 233.654,181.696 233,180.5C 231.154,177.431 230.154,174.098 230,170.5C 228.016,177.858 230.016,183.858 236,188.5C 236.667,190.833 236.667,193.167 236,195.5C 232.024,198.108 230.524,201.775 231.5,206.5 Z"/></g>
<g><path style="opacity:1" fill="#37302f" d="M 173.5,148.5 C 176.373,152.017 175.873,155.017 172,157.5C 170.739,157.241 169.739,156.574 169,155.5C 168.764,153.236 168.264,151.069 167.5,149C 169.483,147.293 171.483,147.126 173.5,148.5 Z"/></g>
<g><path style="opacity:1" fill="#dcdcdc" d="M 173.5,148.5 C 173.361,150.337 172.694,150.67 171.5,149.5C 171.957,148.702 172.624,148.369 173.5,148.5 Z"/></g>
<g><path style="opacity:1" fill="#6b615e" d="M 210.5,146.5 C 211.496,146.414 212.329,146.748 213,147.5C 213.789,149.712 213.622,151.712 212.5,153.5C 212.141,151.629 211.141,150.129 209.5,149C 210.252,148.329 210.586,147.496 210.5,146.5 Z"/></g>
<g><path style="opacity:1" fill="#2b2526" d="M 210.5,146.5 C 210.586,147.496 210.252,148.329 209.5,149C 211.141,150.129 212.141,151.629 212.5,153.5C 211.391,157.029 209.558,157.362 207,154.5C 205.579,150.494 206.746,147.828 210.5,146.5 Z"/></g>
<g><path style="opacity:1" fill="#d5696d" d="M 206.5,133.5 C 211.352,133.505 215.352,135.338 218.5,139C 214.592,136.878 210.592,135.044 206.5,133.5 Z"/></g>
<g><path style="opacity:1" fill="#d26065" d="M 169.5,135.5 C 176.531,135.519 176.864,136.019 170.5,137C 167.898,137.883 165.731,139.383 164,141.5C 163.333,140.833 163.333,140.167 164,139.5C 165.812,138.023 167.645,136.69 169.5,135.5 Z"/></g>
<g><path style="opacity:1" fill="#de7875" d="M 228.5,154.5 C 228.844,159.122 228.177,163.455 226.5,167.5C 226.77,162.972 227.437,158.639 228.5,154.5 Z"/></g>
<g><path style="opacity:1" fill="#f7ad61" d="M 253.5,166.5 C 256.412,169.791 260.079,171.791 264.5,172.5C 266.267,175.77 268.6,178.603 271.5,181C 271.272,181.399 270.938,181.565 270.5,181.5C 262.705,180.269 256.038,176.936 250.5,171.5C 251.248,169.668 252.248,168.001 253.5,166.5 Z"/></g>
<g><path style="opacity:1" fill="#92796e" d="M 300.5,168.5 C 300.56,167.957 300.893,167.624 301.5,167.5C 302.833,168.167 304.167,168.833 305.5,169.5C 310.824,168.515 310.824,168.848 305.5,170.5C 303.7,170.098 302.033,169.431 300.5,168.5 Z"/></g>
<g><path style="opacity:1" fill="#9edfd1" d="M 127.5,172.5 C 130.196,177.234 132.862,181.901 135.5,186.5C 135.407,192.516 135.074,198.516 134.5,204.5C 128.99,198.995 122.657,194.661 115.5,191.5C 113.819,189.992 111.819,188.992 109.5,188.5C 107.885,185.254 108.218,182.254 110.5,179.5C 116.501,177.729 122.168,175.395 127.5,172.5 Z"/></g>
<g><path style="opacity:1" fill="#9fe0d1" d="M 250.5,171.5 C 256.038,176.936 262.705,180.269 270.5,181.5C 275.289,183.717 280.289,185.717 285.5,187.5C 286.793,189.636 286.793,191.636 285.5,193.5C 269.802,196.348 256.802,203.848 246.5,216C 247.056,216.383 247.389,216.883 247.5,217.5C 245.576,219.695 243.909,222.028 242.5,224.5C 241.248,220.829 239.582,217.329 237.5,214C 238.056,213.617 238.389,213.117 238.5,212.5C 241.372,211.474 243.872,209.808 246,207.5C 249.266,202.262 250.266,196.595 249,190.5C 245.158,183.622 245.658,177.288 250.5,171.5 Z"/></g>
<g><path style="opacity:1" fill="#0488cc" d="M 73.5,186.5 C 75.3603,192.584 77.3603,198.751 79.5,205C 79.9054,205.945 80.572,206.612 81.5,207C 80.6634,208.011 80.33,209.178 80.5,210.5C 87.9149,207.958 94.9149,204.625 101.5,200.5C 104.757,199.538 107.757,198.038 110.5,196C 111.5,195.333 112.5,195.333 113.5,196C 118.634,200.133 123.468,204.633 128,209.5C 130.571,211.976 132.071,214.976 132.5,218.5C 126.352,220.336 121.518,224.002 118,229.5C 116.284,226.36 114.951,223.027 114,219.5C 112.65,226.446 111.817,233.446 111.5,240.5C 103.029,230.264 92.0286,224.764 78.5,224C 71.1308,223.274 63.7975,223.441 56.5,224.5C 56.6495,223.448 56.4828,222.448 56,221.5C 51.0671,217.075 47.5671,211.741 45.5,205.5C 44.4249,203.144 44.4249,200.811 45.5,198.5C 47.5707,196.815 49.5707,195.148 51.5,193.5C 58.5725,190.365 65.9059,188.031 73.5,186.5 Z"/></g>
<g><path style="opacity:1" fill="#1692d1" d="M 73.5,186.5 C 75.7257,185.244 78.059,185.244 80.5,186.5C 80.7923,192.688 82.459,198.355 85.5,203.5C 93.528,198.489 101.528,193.489 109.5,188.5C 111.819,188.992 113.819,189.992 115.5,191.5C 110.457,194.015 105.79,197.015 101.5,200.5C 94.9149,204.625 87.9149,207.958 80.5,210.5C 80.33,209.178 80.6634,208.011 81.5,207C 80.572,206.612 79.9054,205.945 79.5,205C 77.3603,198.751 75.3603,192.584 73.5,186.5 Z"/></g>
<g><path style="opacity:1" fill="#127ec3" d="M 115.5,191.5 C 122.657,194.661 128.99,198.995 134.5,204.5C 135.207,207.643 136.373,210.643 138,213.5C 139.33,214.582 140.83,215.249 142.5,215.5C 142.34,217.153 141.674,218.486 140.5,219.5C 132.19,220.24 125.024,223.907 119,230.5C 118.743,234.77 117.576,238.77 115.5,242.5C 113.167,243.941 111.834,243.275 111.5,240.5C 111.817,233.446 112.65,226.446 114,219.5C 114.951,223.027 116.284,226.36 118,229.5C 121.518,224.002 126.352,220.336 132.5,218.5C 132.071,214.976 130.571,211.976 128,209.5C 123.468,204.633 118.634,200.133 113.5,196C 112.5,195.333 111.5,195.333 110.5,196C 107.757,198.038 104.757,199.538 101.5,200.5C 105.79,197.015 110.457,194.015 115.5,191.5 Z"/></g>
<g><path style="opacity:1" fill="#1ebcc0" d="M 308.5,192.5 C 319.25,195.208 328.917,200.042 337.5,207C 339.923,208.571 341.256,210.737 341.5,213.5C 338.857,217.435 336.19,221.435 333.5,225.5C 335.003,229.356 335.67,233.356 335.5,237.5C 333.415,243.124 330.581,248.457 327,253.5C 326.057,259.222 326.89,264.556 329.5,269.5C 330.967,275.898 332.634,282.232 334.5,288.5C 337.234,299.718 337.901,311.051 336.5,322.5C 334.833,323.167 333.167,323.833 331.5,324.5C 330.502,333.475 330.168,342.475 330.5,351.5C 308.167,351.5 285.833,351.5 263.5,351.5C 263.652,341.15 263.819,330.816 264,320.5C 262.414,319.624 260.914,318.624 259.5,317.5C 261.298,311.168 262.964,304.835 264.5,298.5C 265.29,297.599 266.29,296.932 267.5,296.5C 269.595,297.412 271.595,298.579 273.5,300C 274.833,300.667 276.167,300.667 277.5,300C 279.775,298.142 282.275,296.642 285,295.5C 287.303,293.453 287.803,291.119 286.5,288.5C 295.289,285.521 303.623,281.688 311.5,277C 309.767,274.042 308.767,270.875 308.5,267.5C 309.043,267.44 309.376,267.107 309.5,266.5C 308.864,264.22 307.864,262.22 306.5,260.5C 311.638,251.774 309.304,246.107 299.5,243.5C 299.737,242.209 299.404,241.209 298.5,240.5C 295.353,238.895 293.686,236.228 293.5,232.5C 285.728,235.219 278.061,238.219 270.5,241.5C 270.808,239.076 270.474,236.743 269.5,234.5C 266.15,236.274 264.484,235.274 264.5,231.5C 260.603,224.596 254.936,219.929 247.5,217.5C 247.389,216.883 247.056,216.383 246.5,216C 256.802,203.848 269.802,196.348 285.5,193.5C 291.102,200.275 296.935,206.942 303,213.5C 305.616,206.701 307.45,199.701 308.5,192.5 Z"/></g>
<g><path style="opacity:1" fill="#79cff3" d="M 208.5,196.5 C 211.257,197.512 213.924,198.512 216.5,199.5C 220.223,202.449 224.389,204.783 229,206.5C 234.29,213.41 238.29,221.077 241,229.5C 241.333,229.167 241.667,228.833 242,228.5C 242.384,230.197 242.218,231.863 241.5,233.5C 235.946,236.651 229.946,238.318 223.5,238.5C 223.167,238.5 222.833,238.5 222.5,238.5C 222.5,236.167 222.5,233.833 222.5,231.5C 224.403,222.734 222.903,214.4 218,206.5C 215.933,203.93 213.433,201.93 210.5,200.5C 209.82,199.14 209.153,197.807 208.5,196.5 Z"/></g>
<g><path style="opacity:1" fill="#68c4ec" d="M 168.5,198.5 C 160.703,212.261 159.37,226.761 164.5,242C 163.652,243.666 162.652,245.166 161.5,246.5C 160.33,244.35 159.33,242.016 158.5,239.5C 158.043,238.702 157.376,238.369 156.5,238.5C 149.298,238.822 142.798,236.822 137,232.5C 136.774,227.735 137.94,223.402 140.5,219.5C 141.674,218.486 142.34,217.153 142.5,215.5C 148.481,205.874 157.147,200.207 168.5,198.5 Z"/></g>
<g><path style="opacity:1" fill="#4c5053" d="M 179.5,190.5 C 179.598,192.553 178.931,194.22 177.5,195.5C 168.907,202.361 164.907,211.361 165.5,222.5C 165.36,228.636 166.194,234.636 168,240.5C 174.748,241.238 177.748,244.905 177,251.5C 173.812,257.566 169.312,258.899 163.5,255.5C 161.874,252.754 161.207,249.754 161.5,246.5C 162.652,245.166 163.652,243.666 164.5,242C 159.37,226.761 160.703,212.261 168.5,198.5C 171.583,195.092 175.249,192.425 179.5,190.5 Z"/></g>
<g><path style="opacity:1" fill="#7ad0f4" d="M 177.5,195.5 C 181.772,203.611 186.272,211.611 191,219.5C 195.274,211.936 199.774,204.602 204.5,197.5C 205.965,198.406 206.965,199.739 207.5,201.5C 199.963,211.323 198.63,221.99 203.5,233.5C 205.459,242.714 208.793,251.381 213.5,259.5C 211.796,261.849 209.463,262.849 206.5,262.5C 203.192,260.716 201.525,261.716 201.5,265.5C 203.167,265.5 204.833,265.5 206.5,265.5C 209.972,265.874 212.972,264.874 215.5,262.5C 216.183,262.863 216.85,263.196 217.5,263.5C 218.264,266.018 219.264,268.351 220.5,270.5C 218.036,279.892 215.369,289.225 212.5,298.5C 207.547,299.329 202.547,299.663 197.5,299.5C 197.334,303.514 197.501,307.514 198,311.5C 198.498,308.518 198.665,305.518 198.5,302.5C 206.937,302.847 215.271,302.181 223.5,300.5C 224.441,305.837 224.608,311.17 224,316.5C 225.527,310.585 225.861,304.585 225,298.5C 224.617,297.944 224.117,297.611 223.5,297.5C 224.604,295.611 225.937,293.945 227.5,292.5C 229.933,304.788 229.933,316.788 227.5,328.5C 205.76,335.17 183.76,336.17 161.5,331.5C 161.338,329.473 161.505,327.473 162,325.5C 165.052,327.851 168.219,328.018 171.5,326C 168.774,325.818 166.107,325.318 163.5,324.5C 160.14,317.204 158.807,309.537 159.5,301.5C 166.443,302.427 173.443,302.76 180.5,302.5C 180.335,305.518 180.502,308.518 181,311.5C 181.499,307.514 181.666,303.514 181.5,299.5C 176.52,300.015 171.854,299.348 167.5,297.5C 164.229,288.353 161.563,279.02 159.5,269.5C 162.056,265.288 163.39,260.622 163.5,255.5C 169.312,258.899 173.812,257.566 177,251.5C 177.748,244.905 174.748,241.238 168,240.5C 166.194,234.636 165.36,228.636 165.5,222.5C 164.907,211.361 168.907,202.361 177.5,195.5 Z"/></g>
<g><path style="opacity:1" fill="#7ad2f5" d="M 162.5,203.5 C 163.043,203.56 163.376,203.893 163.5,204.5C 162.391,206.385 161.557,208.385 161,210.5C 160.896,216.348 159.896,222.014 158,227.5C 157.216,230.76 157.383,233.927 158.5,237C 155.287,237.703 152.121,237.536 149,236.5C 147.298,235.631 146.131,234.298 145.5,232.5C 147.353,220.443 153.019,210.776 162.5,203.5 Z"/></g>
<g><path style="opacity:1" fill="#78d0f3" d="M 219.5,232.5 C 218.835,240.324 217.335,247.991 215,255.5C 211.287,248.53 208.453,241.197 206.5,233.5C 204.941,227.247 204.441,220.913 205,214.5C 207.916,202.904 211.916,202.571 217,213.5C 219.097,219.656 219.93,225.99 219.5,232.5 Z"/></g>
<g><path style="opacity:1" fill="#f9cbb6" d="M 45.5,205.5 C 47.5671,211.741 51.0671,217.075 56,221.5C 56.4828,222.448 56.6495,223.448 56.5,224.5C 63.7975,223.441 71.1308,223.274 78.5,224C 92.0286,224.764 103.029,230.264 111.5,240.5C 111.834,243.275 113.167,243.941 115.5,242.5C 117.576,238.77 118.743,234.77 119,230.5C 125.024,223.907 132.19,220.24 140.5,219.5C 137.94,223.402 136.774,227.735 137,232.5C 142.798,236.822 149.298,238.822 156.5,238.5C 156.134,248.977 157.134,259.31 159.5,269.5C 161.563,279.02 164.229,288.353 167.5,297.5C 164.713,298.477 161.713,298.81 158.5,298.5C 155.599,295.688 152.932,292.688 150.5,289.5C 144.228,277.184 140.061,264.184 138,250.5C 134.562,258.107 129.062,263.44 121.5,266.5C 114.349,268.168 107.349,267.668 100.5,265C 88.3382,259.086 76.3382,252.919 64.5,246.5C 59.4142,248.019 54.4142,249.353 49.5,250.5C 49.1667,250.5 48.8333,250.5 48.5,250.5C 41.0941,251.218 35.9274,248.218 33,241.5C 31.815,227.557 35.9817,215.557 45.5,205.5 Z"/></g>
<g><path style="opacity:1" fill="#7bbae1" d="M 216.5,199.5 C 221.885,201.026 226.885,203.36 231.5,206.5C 233.239,209.243 235.573,211.243 238.5,212.5C 238.389,213.117 238.056,213.617 237.5,214C 239.582,217.329 241.248,220.829 242.5,224.5C 242.938,226.126 243.272,227.793 243.5,229.5C 243.66,231.355 242.993,232.688 241.5,233.5C 242.218,231.863 242.384,230.197 242,228.5C 241.667,228.833 241.333,229.167 241,229.5C 238.29,221.077 234.29,213.41 229,206.5C 224.389,204.783 220.223,202.449 216.5,199.5 Z"/></g>
<g><path style="opacity:1" fill="#fbcbb6" d="M 341.5,213.5 C 342.167,214.833 343.167,215.833 344.5,216.5C 348.735,221.291 352.235,226.625 355,232.5C 355.667,236.833 355.667,241.167 355,245.5C 350.965,256.026 345.465,265.693 338.5,274.5C 339.833,275.833 341.167,277.167 342.5,278.5C 341.333,280.833 340.167,283.167 339,285.5C 337.871,287.141 336.371,288.141 334.5,288.5C 332.634,282.232 330.967,275.898 329.5,269.5C 332.262,260.638 335.595,251.972 339.5,243.5C 338.653,241.129 337.32,239.129 335.5,237.5C 335.67,233.356 335.003,229.356 333.5,225.5C 336.19,221.435 338.857,217.435 341.5,213.5 Z"/></g>
<g><path style="opacity:1" fill="#4f5458" d="M 201.5,190.5 C 204.427,191.757 206.761,193.757 208.5,196.5C 209.153,197.807 209.82,199.14 210.5,200.5C 213.433,201.93 215.933,203.93 218,206.5C 222.903,214.4 224.403,222.734 222.5,231.5C 221.391,231.557 220.391,231.89 219.5,232.5C 219.93,225.99 219.097,219.656 217,213.5C 211.916,202.571 207.916,202.904 205,214.5C 204.441,220.913 204.941,227.247 206.5,233.5C 205.5,233.5 204.5,233.5 203.5,233.5C 198.63,221.99 199.963,211.323 207.5,201.5C 206.965,199.739 205.965,198.406 204.5,197.5C 203.773,195.046 202.773,192.713 201.5,190.5 Z"/></g>
<g><path style="opacity:1" fill="#9ddecf" d="M 264.5,231.5 C 264.484,235.274 266.15,236.274 269.5,234.5C 270.474,236.743 270.808,239.076 270.5,241.5C 266.282,243.441 261.949,245.108 257.5,246.5C 258.52,240.797 260.854,235.797 264.5,231.5 Z"/></g>
<g><path style="opacity:1" fill="#f9cab5" d="M 247.5,217.5 C 254.936,219.929 260.603,224.596 264.5,231.5C 260.854,235.797 258.52,240.797 257.5,246.5C 256.375,247.652 256.375,248.652 257.5,249.5C 256.445,252.073 256.278,254.739 257,257.5C 259,263.5 261,269.5 263,275.5C 264.909,278.414 267.575,280.081 271,280.5C 273.189,279.312 275.356,279.312 277.5,280.5C 279.459,280.125 281.293,279.459 283,278.5C 285.218,280.388 285.718,282.555 284.5,285C 285.448,285.483 286.448,285.649 287.5,285.5C 286.737,286.268 285.737,286.768 284.5,287C 285.416,287.278 286.082,287.778 286.5,288.5C 287.803,291.119 287.303,293.453 285,295.5C 282.275,296.642 279.775,298.142 277.5,300C 276.167,300.667 274.833,300.667 273.5,300C 271.595,298.579 269.595,297.412 267.5,296.5C 267.167,295.5 266.5,294.833 265.5,294.5C 260.203,288.702 254.703,283.035 249,277.5C 245.97,273.302 243.137,268.968 240.5,264.5C 238.209,265.896 237.875,267.729 239.5,270C 239.056,271.762 238.556,271.595 238,269.5C 236.851,272.393 236.351,275.393 236.5,278.5C 235.883,278.389 235.383,278.056 235,277.5C 234.153,279.854 233.32,282.188 232.5,284.5C 230.336,286.822 228.669,289.489 227.5,292.5C 225.937,293.945 224.604,295.611 223.5,297.5C 222.833,297.5 222.167,297.5 221.5,297.5C 220.508,297.328 219.842,297.662 219.5,298.5C 217.167,298.5 214.833,298.5 212.5,298.5C 215.369,289.225 218.036,279.892 220.5,270.5C 221.15,268.565 221.483,266.565 221.5,264.5C 222.833,264.5 224.167,264.5 225.5,264.5C 230.526,263.902 231.192,262.236 227.5,259.5C 226.482,260.193 225.482,260.859 224.5,261.5C 223.833,261.5 223.167,261.5 222.5,261.5C 223.313,253.862 223.646,246.196 223.5,238.5C 229.946,238.318 235.946,236.651 241.5,233.5C 242.993,232.688 243.66,231.355 243.5,229.5C 243.272,227.793 242.938,226.126 242.5,224.5C 243.909,222.028 245.576,219.695 247.5,217.5 Z"/></g>
<g><path style="opacity:1" fill="#eeeceb" d="M 294.5,240.5 C 292.703,241.73 290.703,242.396 288.5,242.5C 291.67,252.508 295.67,262.174 300.5,271.5C 302.323,270.253 304.323,269.586 306.5,269.5C 308.169,271.963 308.836,274.463 308.5,277C 301.596,280.133 294.596,282.966 287.5,285.5C 286.448,285.649 285.448,285.483 284.5,285C 285.718,282.555 285.218,280.388 283,278.5C 281.293,279.459 279.459,280.125 277.5,280.5C 275.356,279.312 273.189,279.312 271,280.5C 267.575,280.081 264.909,278.414 263,275.5C 261,269.5 259,263.5 257,257.5C 256.278,254.739 256.445,252.073 257.5,249.5C 268.597,244.743 279.764,240.076 291,235.5C 292.971,236.528 294.137,238.195 294.5,240.5 Z"/></g>
<g><path style="opacity:1" fill="#9dddcf" d="M 222.5,238.5 C 222.833,238.5 223.167,238.5 223.5,238.5C 223.646,246.196 223.313,253.862 222.5,261.5C 220.286,261.709 218.619,260.876 217.5,259C 219.377,252.087 221.044,245.254 222.5,238.5 Z"/></g>
<g><path style="opacity:1" fill="#fcfcfc" d="M 335.5,237.5 C 337.32,239.129 338.653,241.129 339.5,243.5C 335.595,251.972 332.262,260.638 329.5,269.5C 326.89,264.556 326.057,259.222 327,253.5C 330.581,248.457 333.415,243.124 335.5,237.5 Z"/></g>
<g><path style="opacity:1" fill="#9eddd0" d="M 156.5,238.5 C 157.376,238.369 158.043,238.702 158.5,239.5C 159.33,242.016 160.33,244.35 161.5,246.5C 161.207,249.754 161.874,252.754 163.5,255.5C 163.39,260.622 162.056,265.288 159.5,269.5C 157.134,259.31 156.134,248.977 156.5,238.5 Z"/></g>
<g><path style="opacity:1" fill="#3e4443" d="M 298.5,240.5 C 296.965,241.354 295.632,241.354 294.5,240.5C 294.137,238.195 292.971,236.528 291,235.5C 279.764,240.076 268.597,244.743 257.5,249.5C 256.375,248.652 256.375,247.652 257.5,246.5C 261.949,245.108 266.282,243.441 270.5,241.5C 278.061,238.219 285.728,235.219 293.5,232.5C 293.686,236.228 295.353,238.895 298.5,240.5 Z"/></g>
<g><path style="opacity:1" fill="#797b7e" d="M 294.5,240.5 C 295.632,241.354 296.965,241.354 298.5,240.5C 299.404,241.209 299.737,242.209 299.5,243.5C 299.402,245.553 300.069,247.22 301.5,248.5C 303.065,250.509 304.065,252.843 304.5,255.5C 304.402,257.553 305.069,259.22 306.5,260.5C 307.864,262.22 308.864,264.22 309.5,266.5C 309.376,267.107 309.043,267.44 308.5,267.5C 307.167,267.5 306.5,268.167 306.5,269.5C 304.323,269.586 302.323,270.253 300.5,271.5C 295.67,262.174 291.67,252.508 288.5,242.5C 290.703,242.396 292.703,241.73 294.5,240.5 Z"/></g>
<g><path style="opacity:1" fill="#0188c7" d="M 51.5,315.5 C 49.2504,314.87 47.2504,313.87 45.5,312.5C 45.6715,311.121 45.8382,309.454 46,307.5C 51.6674,309.014 56.334,307.347 60,302.5C 64.328,296.185 65.828,289.352 64.5,282C 57.854,281.169 51.1874,280.669 44.5,280.5C 45.1821,270.408 46.5154,260.408 48.5,250.5C 48.8333,250.5 49.1667,250.5 49.5,250.5C 54.3419,251.437 59.1753,250.771 64,248.5C 73.8988,254.717 84.0655,260.55 94.5,266C 100.262,268.441 106.262,269.608 112.5,269.5C 112.337,274.547 112.671,279.547 113.5,284.5C 105.167,284.5 96.8333,284.5 88.5,284.5C 88.3347,288.182 88.5014,291.848 89,295.5C 89.4974,292.854 89.6641,290.187 89.5,287.5C 97.4728,287.326 97.4728,286.826 89.5,286C 98.5185,285.168 107.518,285.335 116.5,286.5C 114.257,287.474 111.924,287.808 109.5,287.5C 110.079,295.183 108.746,302.516 105.5,309.5C 100.694,311.189 96.8607,309.855 94,305.5C 93.4741,302.117 92.1407,299.117 90,296.5C 90.2825,305.29 94.7825,310.623 103.5,312.5C 107.31,312.012 110.477,310.345 113,307.5C 113.784,310.76 113.617,313.927 112.5,317C 92.334,319.549 72.334,318.715 52.5,314.5C 51.8933,314.624 51.56,314.957 51.5,315.5 Z"/></g>
<g><path style="opacity:1" fill="#707174" d="M 169.5,245.5 C 172.649,244.268 174.315,245.601 174.5,249.5C 172.997,254.461 169.997,255.627 165.5,253C 164.096,245.035 165.43,244.535 169.5,251.5C 170.5,251.167 171.167,250.5 171.5,249.5C 171.006,247.974 170.339,246.641 169.5,245.5 Z"/></g>
<g><path style="opacity:1" fill="#516063" d="M 299.5,243.5 C 309.304,246.107 311.638,251.774 306.5,260.5C 305.069,259.22 304.402,257.553 304.5,255.5C 306.959,253.029 306.626,250.529 303.5,248C 302.563,247.308 301.897,247.475 301.5,248.5C 300.069,247.22 299.402,245.553 299.5,243.5 Z"/></g>
<g><path style="opacity:1" fill="#9fe1d2" d="M 150.5,289.5 C 149.657,293.873 148.657,298.207 147.5,302.5C 141.282,305.442 134.949,308.109 128.5,310.5C 125.163,296.124 122.83,281.457 121.5,266.5C 129.062,263.44 134.562,258.107 138,250.5C 140.061,264.184 144.228,277.184 150.5,289.5 Z"/></g>
<g><path style="opacity:1" fill="#848f94" d="M 222.5,231.5 C 222.5,233.833 222.5,236.167 222.5,238.5C 221.044,245.254 219.377,252.087 217.5,259C 218.619,260.876 220.286,261.709 222.5,261.5C 223.167,261.5 223.833,261.5 224.5,261.5C 224.557,262.609 224.89,263.609 225.5,264.5C 224.167,264.5 222.833,264.5 221.5,264.5C 220.041,264.567 218.708,264.234 217.5,263.5C 216.85,263.196 216.183,262.863 215.5,262.5C 212.972,264.874 209.972,265.874 206.5,265.5C 206.5,264.5 206.5,263.5 206.5,262.5C 209.463,262.849 211.796,261.849 213.5,259.5C 208.793,251.381 205.459,242.714 203.5,233.5C 204.5,233.5 205.5,233.5 206.5,233.5C 208.453,241.197 211.287,248.53 215,255.5C 217.335,247.991 218.835,240.324 219.5,232.5C 220.391,231.89 221.391,231.557 222.5,231.5 Z"/></g>
<g><path style="opacity:1" fill="#1aafb3" d="M 301.5,248.5 C 301.897,247.475 302.563,247.308 303.5,248C 306.626,250.529 306.959,253.029 304.5,255.5C 304.065,252.843 303.065,250.509 301.5,248.5 Z"/></g>
<g><path style="opacity:1" fill="#5f5857" d="M 225.5,264.5 C 224.89,263.609 224.557,262.609 224.5,261.5C 225.482,260.859 226.482,260.193 227.5,259.5C 231.192,262.236 230.526,263.902 225.5,264.5 Z"/></g>
<g><path style="opacity:1" fill="#474c50" d="M 206.5,262.5 C 206.5,263.5 206.5,264.5 206.5,265.5C 204.833,265.5 203.167,265.5 201.5,265.5C 201.525,261.716 203.192,260.716 206.5,262.5 Z"/></g>
<g><path style="opacity:1" fill="#9adbd0" d="M 217.5,263.5 C 218.708,264.234 220.041,264.567 221.5,264.5C 221.483,266.565 221.15,268.565 220.5,270.5C 219.264,268.351 218.264,266.018 217.5,263.5 Z"/></g>
<g><path style="opacity:1" fill="#f1eeec" d="M 265.5,294.5 C 259.558,297.434 253.391,300.101 247,302.5C 245.523,301.556 244.523,300.223 244,298.5C 241.202,291.911 238.702,285.245 236.5,278.5C 236.351,275.393 236.851,272.393 238,269.5C 238.556,271.595 239.056,271.762 239.5,270C 237.875,267.729 238.209,265.896 240.5,264.5C 243.137,268.968 245.97,273.302 249,277.5C 254.703,283.035 260.203,288.702 265.5,294.5 Z"/></g>
<g><path style="opacity:1" fill="#0889c7" d="M 44.5,307.5 C 43.1667,301.5 43.1667,295.5 44.5,289.5C 45.3091,287.708 45.8091,285.708 46,283.5C 50.4145,284.303 54.9145,284.803 59.5,285C 60.428,285.388 61.0946,286.055 61.5,287C 60.1673,293.67 57.6673,299.837 54,305.5C 52.8061,306.43 51.4728,307.097 50,307.5C 48.0025,306.34 46.1692,306.34 44.5,307.5 Z"/></g>
<g><path style="opacity:1" fill="#017dc3" d="M 44.5,280.5 C 51.1874,280.669 57.854,281.169 64.5,282C 65.828,289.352 64.328,296.185 60,302.5C 56.334,307.347 51.6674,309.014 46,307.5C 45.8382,309.454 45.6715,311.121 45.5,312.5C 44.5489,311.081 44.2155,309.415 44.5,307.5C 46.1692,306.34 48.0025,306.34 50,307.5C 51.4728,307.097 52.8061,306.43 54,305.5C 57.6673,299.837 60.1673,293.67 61.5,287C 61.0946,286.055 60.428,285.388 59.5,285C 54.9145,284.803 50.4145,284.303 46,283.5C 45.8091,285.708 45.3091,287.708 44.5,289.5C 44.5,286.5 44.5,283.5 44.5,280.5 Z"/></g>
<g><path style="opacity:1" fill="#fdfefe" d="M 232.5,284.5 C 235.447,292.342 238.78,300.008 242.5,307.5C 249.627,303.934 256.96,300.934 264.5,298.5C 262.964,304.835 261.298,311.168 259.5,317.5C 260.914,318.624 262.414,319.624 264,320.5C 263.819,330.816 263.652,341.15 263.5,351.5C 249.833,351.5 236.167,351.5 222.5,351.5C 222.839,345.456 223.506,339.456 224.5,333.5C 224.31,331.041 225.31,329.374 227.5,328.5C 229.933,316.788 229.933,304.788 227.5,292.5C 228.669,289.489 230.336,286.822 232.5,284.5 Z"/></g>
<g><path style="opacity:1" fill="#3f4242" d="M 308.5,267.5 C 308.767,270.875 309.767,274.042 311.5,277C 303.623,281.688 295.289,285.521 286.5,288.5C 286.082,287.778 285.416,287.278 284.5,287C 285.737,286.768 286.737,286.268 287.5,285.5C 294.596,282.966 301.596,280.133 308.5,277C 308.836,274.463 308.169,271.963 306.5,269.5C 306.5,268.167 307.167,267.5 308.5,267.5 Z"/></g>
<g><path style="opacity:1" fill="#6ac9f1" d="M 150.5,289.5 C 152.932,292.688 155.599,295.688 158.5,298.5C 160.631,299.314 162.964,299.814 165.5,300C 161.464,300.85 157.631,300.35 154,298.5C 151.96,306.259 152.96,313.592 157,320.5C 156.694,318.177 156.028,315.844 155,313.5C 154.333,309.167 154.333,304.833 155,300.5C 156.356,301.38 157.856,301.714 159.5,301.5C 158.807,309.537 160.14,317.204 163.5,324.5C 166.107,325.318 168.774,325.818 171.5,326C 168.219,328.018 165.052,327.851 162,325.5C 161.505,327.473 161.338,329.473 161.5,331.5C 158.171,330.501 154.838,329.501 151.5,328.5C 149.83,328.249 148.33,327.582 147,326.5C 146.264,318.465 146.431,310.465 147.5,302.5C 148.657,298.207 149.657,293.873 150.5,289.5 Z"/></g>
<g><path style="opacity:1" fill="#8fcff1" d="M 221.5,297.5 C 221.918,298.222 222.584,298.722 223.5,299C 215.321,301.212 206.987,301.879 198.5,301C 205.715,300.746 212.715,299.913 219.5,298.5C 219.842,297.662 220.508,297.328 221.5,297.5 Z"/></g>
<g><path style="opacity:1" fill="#49494a" d="M 236.5,278.5 C 238.702,285.245 241.202,291.911 244,298.5C 244.523,300.223 245.523,301.556 247,302.5C 253.391,300.101 259.558,297.434 265.5,294.5C 266.5,294.833 267.167,295.5 267.5,296.5C 266.29,296.932 265.29,297.599 264.5,298.5C 256.96,300.934 249.627,303.934 242.5,307.5C 238.78,300.008 235.447,292.342 232.5,284.5C 233.32,282.188 234.153,279.854 235,277.5C 235.383,278.056 235.883,278.389 236.5,278.5 Z"/></g>
<g><path style="opacity:1" fill="#fdfefe" d="M 147.5,302.5 C 146.431,310.465 146.264,318.465 147,326.5C 148.33,327.582 149.83,328.249 151.5,328.5C 152.414,331.728 152.747,335.061 152.5,338.5C 153.49,342.772 154.156,347.106 154.5,351.5C 143.833,351.5 133.167,351.5 122.5,351.5C 121.757,339.515 121.424,327.515 121.5,315.5C 125.14,315.525 127.473,313.858 128.5,310.5C 134.949,308.109 141.282,305.442 147.5,302.5 Z"/></g>
<g><path style="opacity:1" fill="#60a9db" d="M 221.5,297.5 C 222.167,297.5 222.833,297.5 223.5,297.5C 224.117,297.611 224.617,297.944 225,298.5C 225.861,304.585 225.527,310.585 224,316.5C 224.608,311.17 224.441,305.837 223.5,300.5C 215.271,302.181 206.937,302.847 198.5,302.5C 198.665,305.518 198.498,308.518 198,311.5C 197.501,307.514 197.334,303.514 197.5,299.5C 202.547,299.663 207.547,299.329 212.5,298.5C 214.833,298.5 217.167,298.5 219.5,298.5C 212.715,299.913 205.715,300.746 198.5,301C 206.987,301.879 215.321,301.212 223.5,299C 222.584,298.722 221.918,298.222 221.5,297.5 Z"/></g>
<g><path style="opacity:1" fill="#67b3e1" d="M 167.5,297.5 C 171.854,299.348 176.52,300.015 181.5,299.5C 181.666,303.514 181.499,307.514 181,311.5C 180.502,308.518 180.335,305.518 180.5,302.5C 173.443,302.76 166.443,302.427 159.5,301.5C 157.856,301.714 156.356,301.38 155,300.5C 154.333,304.833 154.333,309.167 155,313.5C 156.028,315.844 156.694,318.177 157,320.5C 152.96,313.592 151.96,306.259 154,298.5C 157.631,300.35 161.464,300.85 165.5,300C 162.964,299.814 160.631,299.314 158.5,298.5C 161.713,298.81 164.713,298.477 167.5,297.5 Z"/></g>
<g><path style="opacity:1" fill="#0a7fc4" d="M 121.5,266.5 C 122.83,281.457 125.163,296.124 128.5,310.5C 127.473,313.858 125.14,315.525 121.5,315.5C 121.424,327.515 121.757,339.515 122.5,351.5C 119.5,351.5 116.5,351.5 113.5,351.5C 113.024,341.386 112.191,331.386 111,321.5C 101.369,323.4 91.7023,323.734 82,322.5C 82.4416,332.142 82.9416,341.809 83.5,351.5C 82.5,351.5 81.5,351.5 80.5,351.5C 79.8656,342.155 79.0322,332.822 78,323.5C 69.5203,322.137 61.187,320.137 53,317.5C 52.5001,328.828 52.3335,340.162 52.5,351.5C 52.1667,351.5 51.8333,351.5 51.5,351.5C 51.5,339.5 51.5,327.5 51.5,315.5C 51.56,314.957 51.8933,314.624 52.5,314.5C 72.334,318.715 92.334,319.549 112.5,317C 113.617,313.927 113.784,310.76 113,307.5C 110.477,310.345 107.31,312.012 103.5,312.5C 94.7825,310.623 90.2825,305.29 90,296.5C 92.1407,299.117 93.4741,302.117 94,305.5C 96.8607,309.855 100.694,311.189 105.5,309.5C 108.746,302.516 110.079,295.183 109.5,287.5C 111.924,287.808 114.257,287.474 116.5,286.5C 107.518,285.335 98.5185,285.168 89.5,286C 97.4728,286.826 97.4728,287.326 89.5,287.5C 89.6641,290.187 89.4974,292.854 89,295.5C 88.5014,291.848 88.3347,288.182 88.5,284.5C 96.8333,284.5 105.167,284.5 113.5,284.5C 112.671,279.547 112.337,274.547 112.5,269.5C 106.262,269.608 100.262,268.441 94.5,266C 84.0655,260.55 73.8988,254.717 64,248.5C 59.1753,250.771 54.3419,251.437 49.5,250.5C 54.4142,249.353 59.4142,248.019 64.5,246.5C 76.3382,252.919 88.3382,259.086 100.5,265C 107.349,267.668 114.349,268.168 121.5,266.5 Z"/></g>
<g><path style="opacity:1" fill="#0088c7" d="M 80.5,351.5 C 71.1667,351.5 61.8333,351.5 52.5,351.5C 52.3335,340.162 52.5001,328.828 53,317.5C 61.187,320.137 69.5203,322.137 78,323.5C 79.0322,332.822 79.8656,342.155 80.5,351.5 Z"/></g>
<g><path style="opacity:1" fill="#0088c6" d="M 113.5,351.5 C 103.5,351.5 93.5,351.5 83.5,351.5C 82.9416,341.809 82.4416,332.142 82,322.5C 91.7023,323.734 101.369,323.4 111,321.5C 112.191,331.386 113.024,341.386 113.5,351.5 Z"/></g>
<g><path style="opacity:1" fill="#78d1f5" d="M 224.5,333.5 C 223.506,339.456 222.839,345.456 222.5,351.5C 211.833,351.5 201.167,351.5 190.5,351.5C 190.5,346.167 190.5,340.833 190.5,335.5C 201.692,335.94 212.525,334.273 223,330.5C 223.232,331.737 223.732,332.737 224.5,333.5 Z"/></g>
<g><path style="opacity:1" fill="#77d1f5" d="M 189.5,351.5 C 177.833,351.5 166.167,351.5 154.5,351.5C 154.156,347.106 153.49,342.772 152.5,338.5C 153.166,335.972 153.832,333.306 154.5,330.5C 165.83,334.444 177.497,336.11 189.5,335.5C 189.5,340.833 189.5,346.167 189.5,351.5 Z"/></g>
<g><path style="opacity:1" fill="#57a8dc" d="M 151.5,328.5 C 154.838,329.501 158.171,330.501 161.5,331.5C 183.76,336.17 205.76,335.17 227.5,328.5C 225.31,329.374 224.31,331.041 224.5,333.5C 223.732,332.737 223.232,331.737 223,330.5C 212.525,334.273 201.692,335.94 190.5,335.5C 190.5,340.833 190.5,346.167 190.5,351.5C 190.167,351.5 189.833,351.5 189.5,351.5C 189.5,346.167 189.5,340.833 189.5,335.5C 177.497,336.11 165.83,334.444 154.5,330.5C 153.832,333.306 153.166,335.972 152.5,338.5C 152.747,335.061 152.414,331.728 151.5,328.5 Z"/></g>
</svg>
